<?xml version="1.0" encoding="utf-8"?>
<!-- Generator: Adobe Adobe Illustrator 24.2.0, SVG Export Plug-In . SVG Version: 6.00 Build 0)  -->
<svg version="1.1" xmlns="http://www.w3.org/2000/svg" xmlns:xlink="http://www.w3.org/1999/xlink" x="0px" y="0px"
	 viewBox="0 0 1920 1080" style="enable-background:new 0 0 1920 1080;" xml:space="preserve">
<style type="text/css">
	.st0{display:none;}
	.st1{display:inline;}
	.st2{fill:none;}
	.st3{fill:#FAF5F5;}
	.st4{font-family:'Ingra-Light';}
	.st5{font-size:48px;}
	.st6{font-family:'Ingra-Thin';}
</style>
<g id="Versao_1" class="st0">
	<rect x="-2020" class="st1" width="1920" height="1080"/>
	<rect x="-1434" y="29.19" style="display:inline;fill:none;" width="748" height="1021.61"/>
	<text transform="matrix(1 0 0 1 -1225.1652 64.0904)" class="st1"><tspan x="0" y="0" class="st3 st4 st5">Uma criação de</tspan><tspan x="-12.55" y="57.6" class="st3 st6 st5">Carolina Marques</tspan><tspan x="-9.6" y="115.2" class="st3 st6 st5">Catarina Barbosa</tspan><tspan x="-11.23" y="172.8" class="st3 st6 st5">Eduardo Baltazar</tspan><tspan x="25.73" y="230.4" class="st3 st6 st5">Hugo Tavares</tspan><tspan x="27.48" y="288" class="st3 st6 st5">João Baltazar</tspan><tspan x="4.61" y="345.6" class="st3 st6 st5">Manuel Canário</tspan><tspan x="-7.68" y="403.2" class="st3 st6 st5">Maria Inês Ferraz</tspan><tspan x="26.76" y="460.8" class="st3 st6 st5">Marta Gomes</tspan><tspan x="53.09" y="518.4" class="st3 st6 st5">Núria Melo</tspan><tspan x="47.81" y="576" class="st3 st6 st5">Sofia Gama</tspan><tspan x="58.42" y="633.6" class="st3 st6 st5">Tiago Vale </tspan><tspan x="102.67" y="748.8" class="st3 st4 st5">Apoio</tspan><tspan x="14.47" y="806.4" class="st3 st6 st5">Diana Barnabé</tspan><tspan x="-69.82" y="921.6" class="st3 st4 st5">Desenvolvimento web</tspan><tspan x="-45.67" y="979.2" class="st3 st6 st5">João Octávio Pereira</tspan></text>
</g>
<g id="Versao_2">
	<rect x="0" class="st0" width="1920" height="1080"/>
	<rect y="213.59" class="st2" width="1920" height="652.82"/>
	<text transform="matrix(1 0 0 1 794.8354 248.4832)"><tspan x="0" y="0" class="st3 st4 st5">Uma criação de</tspan><tspan x="-553.48" y="66.6" class="st3 st6 st5">Carolina Marques | Catarina Barbosa | Eduardo Baltazar | Hugo Tavares</tspan><tspan x="-494.65" y="133.2" class="st3 st6 st5">João Baltazar | Manuel Canário | Maria Inês Ferraz | Marta Gomes</tspan><tspan x="-204.57" y="199.8" class="st3 st6 st5">Núria Melo | Sofia Gama | Tiago Vale </tspan><tspan x="102.67" y="333" class="st3 st4 st5">Apoio</tspan><tspan x="14.47" y="399.6" class="st3 st6 st5">Diana Barnabé</tspan><tspan x="-69.82" y="532.8" class="st3 st4 st5">Desenvolvimento web</tspan><tspan x="-45.67" y="599.4" class="st3 st6 st5">João Octávio Pereira</tspan></text>
</g>
</svg>
