<?xml version="1.0" encoding="utf-8"?>
<!-- Generator: Adobe Adobe Illustrator 24.2.0, SVG Export Plug-In . SVG Version: 6.00 Build 0)  -->
<svg version="1.1" id="Layer_1" xmlns="http://www.w3.org/2000/svg" xmlns:xlink="http://www.w3.org/1999/xlink" x="0px" y="0px"
	 viewBox="0 0 1920 260" style="enable-background:new 0 0 1920 260;" xml:space="preserve">
<style type="text/css">
	.st0{display:none;}
	.st1{fill:#FFFFFF;}
</style>
<rect class="st0" width="1920" height="260"/>
<g>
	<g>
		<path class="st1" d="M50,39.94c0-3.38,2.7-5.85,5.85-5.85c3.38,0,5.85,2.48,5.85,5.85c0,3.15-2.48,5.85-5.85,5.85
			C52.7,45.79,50,43.09,50,39.94z M52.25,73.03h7.2v122.88h-7.2V73.03z"/>
		<path class="st1" d="M295.76,195.91h-7.2V80.45h-90.7v115.46h-7.2V80.45h-90.7v115.46h-7.2V73.03h203V195.91z"/>
		<path class="st1" d="M329.06,73.25h7.43v37.13h0.68c9.23-25.66,31.73-40.29,58.06-40.29c36.01,0,65.04,29.03,65.04,64.59
			c0,36.23-29.03,65.04-65.04,65.04c-28.13,0-48.61-16.65-58.06-39.61h-0.68v70.89h-7.43V73.25z M453.07,134.69
			c0-31.73-25.88-57.17-57.84-57.17c-31.73,0-57.39,25.43-57.39,57.17c0,32.18,25.66,57.84,57.39,57.84
			C427.19,192.53,453.07,166.88,453.07,134.69z"/>
		<path class="st1" d="M484.35,73.03h73.59v7.2h-66.39v115.68h-7.2V73.03z"/>
		<path class="st1" d="M560.19,133.79c0-36.01,29.26-64.14,65.27-64.14c36.01,0,65.27,28.13,65.27,64.14v2.48H567.4
			c1.35,30.83,26.78,55.59,58.06,55.59c23.41,0,43.66-13.95,52.89-34.21h7.88c-9.68,24.31-33.08,41.41-60.77,41.41
			C589.45,199.06,560.19,169.8,560.19,133.79z M683.3,129.07c-2.25-29.71-27.46-52.21-57.84-52.21c-30.38,0-55.59,22.51-57.84,52.21
			H683.3z"/>
		<path class="st1" d="M705.13,165.3h7.2c0,13.5,14.63,26.78,36.01,26.78c20.03,0,36.01-12.15,36.01-26.78
			c0-19.81-16.65-24.98-36.01-29.71c-25.21-6.08-40.96-13.95-40.96-33.53c0-18.91,19.58-32.41,41.64-32.41
			c22.96,0,41.41,14.18,41.41,32.41h-7.2c0-14.18-15.3-25.21-34.21-25.21c-17.33,0-34.43,9.9-34.43,25.21
			c0,17.33,17.1,21.61,35.56,26.56c19.35,5.18,41.41,10.13,41.41,36.68c0,18.68-19.35,33.98-43.21,33.98
			C721.78,199.28,705.13,182.63,705.13,165.3z"/>
		<path class="st1" d="M807.08,165.3h7.2c0,13.5,14.63,26.78,36.01,26.78c20.03,0,36.01-12.15,36.01-26.78
			c0-19.81-16.65-24.98-36.01-29.71c-25.21-6.08-40.96-13.95-40.96-33.53c0-18.91,19.58-32.41,41.64-32.41
			c22.96,0,41.41,14.18,41.41,32.41h-7.2c0-14.18-15.3-25.21-34.21-25.21c-17.33,0-34.43,9.9-34.43,25.21
			c0,17.33,17.1,21.61,35.56,26.56c19.35,5.18,41.41,10.13,41.41,36.68c0,18.68-19.35,33.98-43.21,33.98
			C823.73,199.28,807.08,182.63,807.08,165.3z"/>
		<path class="st1" d="M909.47,134.24c0-36.01,28.81-64.82,65.04-64.82c27.91,0,48.39,16.65,58.06,39.61h0.68V73.03h7.2v122.66h-7.2
			v-36.91h-0.68c-9.45,25.66-32.18,40.51-58.06,40.51C938.28,199.28,909.47,169.8,909.47,134.24z M1031.91,134.24
			c0-32.18-25.66-57.62-57.39-57.62c-32.18,0-58.29,25.43-58.29,57.62c0,31.73,26.11,57.62,58.29,57.62
			C1006.25,191.86,1031.91,165.98,1031.91,134.24z"/>
		<path class="st1" d="M1064.54,134.69c0-36.01,29.26-64.59,65.27-64.59s65.27,28.58,65.27,64.59c0,35.11-29.26,64.59-65.27,64.59
			S1064.54,169.8,1064.54,134.69z M1187.87,134.69c0-32.18-26.11-57.39-58.07-57.39c-31.96,0-58.06,25.21-58.06,57.39
			c0,31.06,26.11,57.39,58.06,57.39C1161.76,192.08,1187.87,165.75,1187.87,134.69z"/>
		<path class="st1" d="M1259.66,134.24c0-36.01,28.81-64.82,65.04-64.82c27.91,0,48.39,16.65,58.06,39.61h0.68V38.37h7.2v157.32
			h-7.2v-36.91h-0.68c-9.45,25.66-32.18,40.51-58.06,40.51C1288.47,199.28,1259.66,169.8,1259.66,134.24z M1382.09,134.24
			c0-32.18-25.66-57.62-57.39-57.62c-32.18,0-58.29,25.43-58.29,57.62c0,31.73,26.11,57.62,58.29,57.62
			C1356.43,191.86,1382.09,165.98,1382.09,134.24z"/>
		<path class="st1" d="M1421.7,39.94c0-3.38,2.7-5.85,5.85-5.85c3.38,0,5.85,2.48,5.85,5.85c0,3.15-2.48,5.85-5.85,5.85
			C1424.4,45.79,1421.7,43.09,1421.7,39.94z M1423.95,73.03h7.2v122.88h-7.2V73.03z"/>
		<path class="st1" d="M1466.71,199.96h7.2v23.86h97.45v-4.95l-10.58-2.7l-54.01-16.2c-37.13-11.7-51.54-37.36-51.54-63.47
			c0-35.78,28.36-63.47,65.27-63.47h54.46v7.2h-21.83h-3.83h-1.13c20.25,10.8,33.98,31.96,33.98,56.26
			c0,32.41-22.28,56.94-54.69,61.67v1.13c3.6,1.13,7.43,2.03,11.03,3.15l40.06,11.03v17.55h-111.85V199.96z M1574.96,136.49
			c0-30.38-24.31-55.36-54.46-56.26c-34.66,0.9-58.06,25.43-58.06,56.26c0,31.06,25.43,56.26,56.26,56.26
			C1549.75,192.76,1574.96,167.55,1574.96,136.49z"/>
		<path class="st1" d="M1605.11,39.94c0-3.38,2.7-5.85,5.85-5.85c3.38,0,5.85,2.48,5.85,5.85c0,3.15-2.48,5.85-5.85,5.85
			C1607.82,45.79,1605.11,43.09,1605.11,39.94z M1607.37,73.03h7.2v122.88h-7.2V73.03z"/>
		<path class="st1" d="M1655.08,80.23h-23.18v-7.2h23.18V38.37h7.2v34.66h26.11v7.2h-26.11v108.48h23.86v7.2h-31.06V80.23z"/>
		<path class="st1" d="M1698.51,134.24c0-36.01,28.81-64.82,65.04-64.82c27.91,0,48.39,16.65,58.06,39.61h0.68V73.03h7.2v122.66
			h-7.2v-36.91h-0.68c-9.45,25.66-32.18,40.51-58.06,40.51C1727.32,199.28,1698.51,169.8,1698.51,134.24z M1820.94,134.24
			c0-32.18-25.66-57.62-57.39-57.62c-32.18,0-58.29,25.43-58.29,57.62c0,31.73,26.11,57.62,58.29,57.62
			C1795.28,191.86,1820.94,165.98,1820.94,134.24z"/>
		<path class="st1" d="M1862.8,38.37h7.2v157.54h-7.2V38.37z"/>
	</g>
	<path class="st1" d="M953.09,39.23h57.79c0,0,3.66-0.03,4.21-0.05l0.06-5.99h-66.33v10.23l4.31-0.02L953.09,39.23z"/>
	<path class="st1" d="M1010.88,33.17h-57.79c0,0-3.66,0.03-4.21,0.05l-0.06,5.99h66.33V28.98l-4.27,0.03V33.17z"/>
</g>
</svg>
