<svg xmlns="http://www.w3.org/2000/svg" viewBox="0 0 707.44 85"><defs><style>.cls-1,.cls-2{fill:#faf5f5;}.cls-2{font-size:48px;font-family:Ingra-Light, Ingra;font-weight:300;}.cls-3{letter-spacing:-0.01em;}.cls-4{letter-spacing:-0.01em;}.cls-5{letter-spacing:-0.01em;}.cls-6{letter-spacing:0.02em;}</style></defs><g id="Layer_2" data-name="Layer 2"><g id="Versao_2" data-name="Versao 2"><path class="cls-1" d="M42.5,0A42.5,42.5,0,1,0,85,42.5,42.57,42.57,0,0,0,42.5,0Zm6,70.17h-12V31.64h12ZM42.41,26.92c-3.78,0-6.33-2.65-6.24-6-.09-3.5,2.46-6,6.33-6a6.07,6.07,0,0,1,6.42,6C48.92,24.18,46.37,26.92,42.41,26.92Z"/><text class="cls-2" transform="translate(120.84 53.36)">ciclo<tspan class="cls-3" x="97.01" y="0">t</tspan><tspan x="115.1" y="0">eat</tspan><tspan class="cls-4" x="183.74" y="0">r</tspan><tspan x="200.06" y="0">o.in</tspan><tspan class="cls-5" x="278.73" y="0">f</tspan><tspan x="294" y="0">o@gmail</tspan><tspan class="cls-6" x="481.38" y="0">.</tspan><tspan class="cls-3" x="494.39" y="0">c</tspan><tspan x="516.62" y="0">om</tspan></text></g></g></svg>