<?xml version="1.0" encoding="utf-8"?>
<!-- Generator: Adobe Illustrator 25.2.3, SVG Export Plug-In . SVG Version: 6.00 Build 0)  -->
<svg version="1.1" id="Layer_1" xmlns="http://www.w3.org/2000/svg" xmlns:xlink="http://www.w3.org/1999/xlink" x="0px" y="0px"
	 viewBox="0 0 707.4 85" style="enable-background:new 0 0 707.4 85;" xml:space="preserve">
<style type="text/css">
	.st0{fill:none;}
	.st1{fill:#FAF5F5;}
</style>
<g>
	<path class="st0" d="M428.8,31.5c-4.9,0-8.2,4-8.2,9.9c0,6.1,3.3,10.1,8.2,10.1c4.8,0,8.2-4.1,8.2-9.9
		C437,35.6,433.6,31.5,428.8,31.5z"/>
	<path class="st0" d="M42.5,14.9c-3.9,0-6.4,2.5-6.3,6c-0.1,3.4,2.5,6,6.2,6c4,0,6.5-2.7,6.5-6c0-0.1,0-0.2,0-0.3
		C48.7,17.3,45.8,14.7,42.5,14.9z"/>
	<path class="st0" d="M489.6,41.4c0,6,2.7,9.5,7.3,9.5c2.3,0,4.6-1.1,6.7-3.1V34.3c-2.1-2-4.1-2.8-6.6-2.8
		C492.5,31.4,489.6,35.3,489.6,41.4z"/>
	<path class="st0" d="M558.6,46.8c0,3,1.8,4.7,5.5,4.7c2.5,0,4.6-0.7,6.6-2.4v-7.4h-5.1C561,41.6,558.6,43.2,558.6,46.8z"/>
	<path class="st0" d="M266.2,46.8c0,3,1.8,4.7,5.5,4.7c2.5,0,4.6-0.7,6.6-2.4v-7.4h-5.1C268.6,41.6,266.2,43.2,266.2,46.8z"/>
	<path class="st0" d="M248.9,31.4c-4.5,0-7.2,3.5-7.4,8.4h13.7C255.2,34.4,252.9,31.4,248.9,31.4z"/>
	<path class="st0" d="M204,31.5c-4.9,0-8.2,4-8.2,9.9c0,6.1,3.3,10.1,8.2,10.1c4.8,0,8.2-4.1,8.2-9.9
		C212.2,35.6,208.8,31.5,204,31.5z"/>
	<path class="st0" d="M459.6,45.2c0,2.4,1.7,3.6,4.2,3.6c1.5,0,3.1-0.4,4.1-1.4v-5.9h-2.5C462.1,41.6,459.6,42.4,459.6,45.2z"/>
	<rect x="36.5" y="31.6" class="st0" width="12" height="38.5"/>
	<path class="st0" d="M651.4,31.5c-4.9,0-8.2,4-8.2,9.9c0,6.1,3.3,10.1,8.2,10.1c4.8,0,8.2-4.1,8.2-9.9
		C659.6,35.6,656.2,31.5,651.4,31.5z"/>
	<path class="st0" d="M334.8,31.5c-4.9,0-8.2,4-8.2,9.9c0,6.1,3.3,10.1,8.2,10.1c4.8,0,8.2-4.1,8.2-9.9
		C343,35.6,339.6,31.5,334.8,31.5z"/>
	<path class="st1" d="M42.5,0C19,0,0,19,0,42.5S19,85,42.5,85S85,66,85,42.5C85,19,66,0,42.5,0z M48.5,70.2h-12V31.6h12V70.2z
		 M42.4,26.9c-3.8,0-6.3-2.6-6.2-6c-0.1-3.5,2.5-6,6.3-6c3.3-0.2,6.2,2.4,6.4,5.7c0,0.1,0,0.2,0,0.3C48.9,24.2,46.4,26.9,42.4,26.9z
		"/>
	<path class="st1" d="M126.6,41.3c0-6.5,3.6-9.8,8.8-9.8c2,0,3.8,0.4,5.7,1.1V30c-1.9-0.7-3.9-1-6-1c-6.9,0-11.8,4.4-11.8,12.5
		c0,7.9,4.7,12.5,11.4,12.5c2.4,0,4.7-0.5,7.1-1.4V50c-2.4,1-4.4,1.4-6.5,1.4C130.1,51.4,126.6,48,126.6,41.3z"/>
	<rect x="147.7" y="20" class="st1" width="3.1" height="4.6"/>
	<rect x="147.7" y="29.4" class="st1" width="3.1" height="24"/>
	<path class="st1" d="M160.6,41.3c0-6.5,3.6-9.8,8.8-9.8c2,0,3.8,0.4,5.7,1.1V30c-1.9-0.7-3.9-1-6-1c-6.9,0-11.8,4.4-11.8,12.5
		c0,7.9,4.7,12.5,11.4,12.5c2.4,0,4.7-0.5,7.1-1.4V50c-2.4,1-4.4,1.4-6.5,1.4C164.1,51.4,160.6,48,160.6,41.3z"/>
	<path class="st1" d="M184.8,48.6V18.5h-3.1v30.9c0,2.6,1.2,4.4,4.4,4.4c0.8,0,1.8-0.1,2.8-0.5V51c-0.6,0.2-1.2,0.3-1.8,0.3
		C185.7,51.3,184.8,50.9,184.8,48.6z"/>
	<path class="st1" d="M204,29c-6.8,0-11.4,5-11.4,12.5c0,7.3,4.7,12.5,11.3,12.5c6.7,0,11.6-5.1,11.6-12.4C215.4,34,210.8,29,204,29
		z M204,51.4c-4.9,0-8.2-4-8.2-10.1c0-5.9,3.3-9.9,8.2-9.9c4.8,0,8.2,4.1,8.2,10.1C212.2,47.4,208.8,51.4,204,51.4z"/>
	<path class="st1" d="M226.6,47.4V31.7h7.9v-2.3h-7.9v-6.5h-3.1v6.5h-4.4v2.3h4.4v15.8c0,5,3,6.5,6.4,6.5c2.1,0,3.8-0.3,4.7-0.6
		v-2.4c-1.1,0.3-2.5,0.5-3.9,0.5C228.2,51.4,226.6,50.2,226.6,47.4z"/>
	<path class="st1" d="M248.9,29c-6.5,0-10.5,5-10.5,12.4c0,8.3,4.6,12.6,11.5,12.6c2.9,0,5.7-0.8,7.5-1.7v-2.4c-2,1-4.5,1.6-7,1.6
		c-5.6,0-8.8-3.2-8.9-9.4h16.6v-1.6C258.1,33.3,254.9,29,248.9,29z M241.6,39.8c0.1-4.9,2.9-8.4,7.4-8.4c4,0,6.3,3,6.3,8.4H241.6z"
		/>
	<path class="st1" d="M281.4,49.8V37.3c0-5.9-2.5-8.4-8.4-8.4c-2.3,0-4.8,0.4-7.4,1.2l0,2.4c2.9-0.8,5.1-1.1,6.9-1.1
		c4.2,0,5.8,1.8,5.8,5.9v2.2h-5.7c-6.2,0-9.6,2.4-9.6,7.5c0,4.4,2.7,6.9,7.7,6.9c3.3,0,6-1.2,7.9-3c0.3,2.1,1.5,3,3.5,3
		c0.9,0,1.7-0.2,2.4-0.4v-2c-0.4,0-0.9,0.1-1.2,0.1C282.1,51.7,281.4,51.1,281.4,49.8z M278.3,49c-2,1.7-4.1,2.4-6.6,2.4
		c-3.7,0-5.5-1.6-5.5-4.7c0-3.6,2.4-5.1,7.1-5.1h5.1V49z"/>
	<path class="st1" d="M294.8,47.4V31.7h7.9v-2.3h-7.9v-6.5h-3.1v6.5h-4.4v2.3h4.4v15.8c0,5,3,6.5,6.4,6.5c2.1,0,3.8-0.3,4.7-0.6
		v-2.4c-1.1,0.3-2.5,0.5-3.9,0.5C296.3,51.4,294.8,50.2,294.8,47.4z"/>
	<path class="st1" d="M311.6,33.6L311.6,33.6l-0.1-4.2h-2.8v24h3.1V35.7c2.7-2.5,5.6-3.8,8.4-3.8v-3
		C317.2,28.9,314.5,30.4,311.6,33.6z"/>
	<path class="st1" d="M334.8,29c-6.8,0-11.4,5-11.4,12.5c0,7.3,4.7,12.5,11.3,12.5c6.7,0,11.6-5.1,11.6-12.4
		C346.2,34,341.6,29,334.8,29z M334.8,51.4c-4.9,0-8.2-4-8.2-10.1c0-5.9,3.3-9.9,8.2-9.9c4.8,0,8.2,4.1,8.2,10.1
		C343,47.4,339.6,51.4,334.8,51.4z"/>
	<rect x="353" y="48.1" class="st1" width="3.6" height="5.3"/>
	<rect x="365" y="20" class="st1" width="3.1" height="4.6"/>
	<rect x="365" y="29.4" class="st1" width="3.1" height="24"/>
	<path class="st1" d="M387.7,29c-3.3,0-6.2,1.3-8.5,3.5h-0.1v-3.1h-2.8v24h3.1v-19c2-1.8,4.6-2.8,7-2.8c3.8,0,6.1,2.4,6.1,6.2v15.6
		h3.1V37.5C395.6,32,392.6,29,387.7,29z"/>
	<path class="st1" d="M405.3,25.9v3.4h-4.4v2.3h4.4v21.7h3.1V31.7h6.5v-2.3h-6.5v-3c0-3.9,1.5-5.9,4.8-5.9c1,0,2,0.1,3.1,0.5v-2.5
		c-1.1-0.3-2.4-0.5-3.6-0.5C407.9,17.9,405.3,20.7,405.3,25.9z"/>
	<path class="st1" d="M428.7,29c-6.8,0-11.4,5-11.4,12.5c0,7.3,4.7,12.5,11.3,12.5c6.7,0,11.6-5.1,11.6-12.4
		C440.2,34,435.6,29,428.7,29z M428.8,51.4c-4.9,0-8.2-4-8.2-10.1c0-5.9,3.3-9.9,8.2-9.9c4.8,0,8.2,4.1,8.2,10.1
		C437,47.4,433.6,51.4,428.8,51.4z"/>
	<path class="st1" d="M464.1,24.9c-10.1,0-17.1,6.6-17.1,16.7c0,11,8.3,16.6,17.7,16.6c3.4,0,6.3-0.8,9.1-2v-2c-2.8,1.3-5.9,2-8.9,2
		c-8.2,0-15.5-4.8-15.5-14.7c0-9.4,6.5-14.6,14.5-14.6c7.2,0,13.8,4.2,13.8,12.7c0,5.1-2.5,9.2-5.7,9.2c-1,0-1.8-0.4-1.8-1.6v-8.6
		c0-4.4-2.1-6-5.8-6c-1.5,0-3.3,0.3-5.4,0.9v1.7c1.6-0.4,3.4-0.8,4.9-0.8c2.5,0,3.9,0.8,3.9,4.1v1.5h-2.6c-4.3,0-8,1.2-8,5.4
		c0,3.6,2.7,5.3,5.9,5.3c1.8,0,3.9-0.6,5.3-2.1c0.4,1.5,1.7,2.1,3.4,2.1c5.1,0,8.4-5.7,8.4-11.5C480.2,31.1,474,24.9,464.1,24.9z
		 M467.9,47.4c-1.1,1.1-2.6,1.4-4.1,1.4c-2.4,0-4.2-1.2-4.2-3.6c0-2.8,2.5-3.6,5.8-3.6h2.5V47.4z"/>
	<path class="st1" d="M503.9,32.2L503.9,32.2c-2.1-2.1-4.8-3.2-7.6-3.2c-6.1,0-10,4.8-10,12.5c0,7.5,3.6,11.9,9.7,11.9
		c2.8,0,5.4-1.2,7.6-3.4h0.1v4.9c0,4.2-2.4,6.1-7.5,6.1c-2.5,0-4.8-0.6-7.5-1.9v2.6c2.5,1.2,5.1,1.8,8,1.8c6.7,0,10-3,10-8.9V29.4
		h-2.8V32.2z M503.6,47.8c-2.1,2-4.4,3.1-6.7,3.1c-4.7,0-7.3-3.5-7.3-9.5c0-6.1,2.8-10,7.4-10c2.5,0,4.6,0.9,6.6,2.8V47.8z"/>
	<path class="st1" d="M541.1,29c-2.8,0-5.7,1.4-8.3,4c-1.1-2.3-3.5-4-7.2-4c-2.5,0-5.2,1.2-7.7,3.5h-0.1v-3.1H515v24h3.1v-19
		c1.9-1.9,4.1-2.8,6.4-2.8c3.8,0,6,2.4,6,6.9v14.9h3.1V36.7c0-0.8,0-1.5-0.3-2.2c2-2,4.4-3,6.7-3c3.9,0,6,2.6,6,6.9v14.9h3.1V37.5
		C549.1,32.1,546.4,29,541.1,29z"/>
	<path class="st1" d="M573.8,49.8V37.3c0-5.9-2.5-8.4-8.4-8.4c-2.3,0-4.8,0.4-7.4,1.2l0,2.4c2.9-0.8,5.1-1.1,6.9-1.1
		c4.2,0,5.8,1.8,5.8,5.9v2.2H565c-6.2,0-9.6,2.4-9.6,7.5c0,4.4,2.7,6.9,7.7,6.9c3.3,0,6-1.2,7.9-3c0.3,2.1,1.5,3,3.5,3
		c0.9,0,1.7-0.2,2.4-0.4v-2c-0.4,0-0.9,0.1-1.2,0.1C574.4,51.7,573.8,51.1,573.8,49.8z M570.7,49c-2,1.7-4.1,2.4-6.6,2.4
		c-3.7,0-5.5-1.6-5.5-4.7c0-3.6,2.4-5.1,7.1-5.1h5.1V49z"/>
	<rect x="582.5" y="20" class="st1" width="3.1" height="4.6"/>
	<rect x="582.5" y="29.4" class="st1" width="3.1" height="24"/>
	<path class="st1" d="M597,48.6V18.5h-3.1v30.9c0,2.6,1.2,4.4,4.4,4.4c0.8,0,1.8-0.1,2.8-0.5V51c-0.6,0.2-1.2,0.3-1.8,0.3
		C597.9,51.3,597,50.9,597,48.6z"/>
	<rect x="606.5" y="48.1" class="st1" width="3.6" height="5.3"/>
	<path class="st1" d="M620.9,41.3c0-6.5,3.6-9.8,8.8-9.8c2,0,3.8,0.4,5.7,1.1V30c-1.9-0.7-3.9-1-6-1c-6.9,0-11.8,4.4-11.8,12.5
		c0,7.9,4.7,12.5,11.4,12.5c2.4,0,4.7-0.5,7.1-1.4V50c-2.4,1-4.4,1.4-6.5,1.4C624.5,51.4,620.9,48,620.9,41.3z"/>
	<path class="st1" d="M651.3,29c-6.8,0-11.4,5-11.4,12.5c0,7.3,4.7,12.5,11.3,12.5c6.7,0,11.6-5.1,11.6-12.4
		C662.8,34,658.2,29,651.3,29z M651.4,51.4c-4.9,0-8.2-4-8.2-10.1c0-5.9,3.3-9.9,8.2-9.9c4.8,0,8.2,4.1,8.2,10.1
		C659.6,47.4,656.2,51.4,651.4,51.4z"/>
	<path class="st1" d="M695.4,29c-2.8,0-5.7,1.4-8.3,4c-1.1-2.3-3.5-4-7.2-4c-2.5,0-5.2,1.2-7.7,3.5h-0.1v-3.1h-2.8v24h3.1v-19
		c1.9-1.9,4.1-2.8,6.4-2.8c3.8,0,6,2.4,6,6.9v14.9h3.1V36.7c0-0.8,0-1.5-0.3-2.2c2-2,4.4-3,6.7-3c3.9,0,6,2.6,6,6.9v14.9h3.1V37.5
		C703.5,32.1,700.7,29,695.4,29z"/>
</g>
</svg>
