<svg xmlns="http://www.w3.org/2000/svg" viewBox="0 0 1125.56 85"><defs><style>.cls-1,.cls-2{fill:#faf5f5;}.cls-2{font-size:48px;font-family:Ingra-Light, Ingra;font-weight:300;}.cls-3{letter-spacing:-0.02em;}.cls-4{letter-spacing:-0.02em;}.cls-5{letter-spacing:-0.02em;}.cls-6{letter-spacing:0em;}.cls-7{letter-spacing:-0.01em;}</style></defs><g id="Layer_2" data-name="Layer 2"><g id="Versao_2" data-name="Versao 2"><path class="cls-1" d="M42.5,0A42.5,42.5,0,1,0,85,42.5,42.5,42.5,0,0,0,42.5,0ZM65.73,63.18a2.56,2.56,0,0,1-2.56,2.56H51.32v-18h6l.91-7H51.28V36.26c0-2,.56-3.42,3.48-3.42h3.71V26.57a48.89,48.89,0,0,0-5.41-.28c-5.34,0-9,3.27-9,9.27v5.18H38v7h6.09v18H21.82a2.56,2.56,0,0,1-2.56-2.56V21.82a2.56,2.56,0,0,1,2.56-2.56H63.18a2.56,2.56,0,0,1,2.55,2.56Z"/><text class="cls-2" transform="translate(120.84 53.36)">CIC<tspan class="cls-3" x="69.98" y="0">L</tspan><tspan x="92.69" y="0">O - Coleti</tspan><tspan class="cls-4" x="289.72" y="0">v</tspan><tspan x="312.57" y="0">o de In</tspan><tspan class="cls-5" x="458.2" y="0">v</tspan><tspan class="cls-6" x="481.05" y="0">estigação e Criação Liv</tspan><tspan class="cls-7" x="963.58" y="0">r</tspan><tspan x="979.9" y="0">e</tspan></text></g></g></svg>