<?xml version="1.0" encoding="utf-8"?>
<!-- Generator: Adobe Illustrator 25.2.3, SVG Export Plug-In . SVG Version: 6.00 Build 0)  -->
<svg version="1.1" id="Layer_1" xmlns="http://www.w3.org/2000/svg" xmlns:xlink="http://www.w3.org/1999/xlink" x="0px" y="0px"
	 viewBox="0 0 1125.6 85" style="enable-background:new 0 0 1125.6 85;" xml:space="preserve">
<style type="text/css">
	.st0{fill:none;}
	.st1{fill:#FAF5F5;}
</style>
<g>
	<path class="st0" d="M917.1,46.8c0,3,1.8,4.7,5.5,4.7c2.5,0,4.6-0.7,6.6-2.4v-7.4h-5.1C919.5,41.6,917.1,43.2,917.1,46.8z"/>
	<path class="st0" d="M708.4,46.8c0,3,1.8,4.7,5.5,4.7c2.5,0,4.6-0.7,6.6-2.4v-7.4h-5.1C710.8,41.6,708.4,43.2,708.4,46.8z"/>
	<path class="st0" d="M514.4,31.4c-4.5,0-7.2,3.5-7.4,8.4h13.7C520.7,34.4,518.4,31.4,514.4,31.4z"/>
	<path class="st0" d="M614.9,31.4c-4.5,0-7.2,3.5-7.4,8.4h13.7C621.2,34.4,618.9,31.4,614.9,31.4z"/>
	<path class="st0" d="M829.9,31.4c-4.5,0-7.2,3.5-7.4,8.4h13.7C836.2,34.4,833.9,31.4,829.9,31.4z"/>
	<path class="st0" d="M756.4,46.8c0,3,1.8,4.7,5.5,4.7c2.5,0,4.6-0.7,6.6-2.4v-7.4h-5.1C758.8,41.6,756.4,43.2,756.4,46.8z"/>
	<path class="st0" d="M790.1,31.5c-4.9,0-8.2,4-8.2,9.9c0,6.1,3.3,10.1,8.2,10.1c4.8,0,8.2-4.1,8.2-9.9
		C798.3,35.6,794.9,31.5,790.1,31.5z"/>
	<path class="st0" d="M479.8,41.9c0,5.9,2.8,9.5,7.5,9.5c2.4,0,4.9-1.1,6.8-2.9V34.2c-2.2-1.9-4.2-2.8-6.7-2.8
		C482.8,31.4,479.8,35.5,479.8,41.9z"/>
	<path class="st0" d="M231.1,23.1c-8.2,0-11.5,6.4-11.5,14.1c0,7.8,3.4,14.1,11.5,14.1s11.5-6.3,11.5-14.1
		C242.6,29.4,239.3,23.1,231.1,23.1z"/>
	<path class="st0" d="M63.2,19.3H21.8c-1.4,0-2.6,1.1-2.6,2.6v41.4c0,1.4,1.1,2.6,2.6,2.6h22.3v-18H38v-7h6.1v-5.2
		c0-6,3.7-9.3,9-9.3c1.8,0,3.6,0.1,5.4,0.3v6.3h-3.7c-2.9,0-3.5,1.4-3.5,3.4v4.5h6.9l-0.9,7h-6v18h11.8c1.4,0,2.6-1.1,2.6-2.6V21.8
		C65.7,20.4,64.6,19.3,63.2,19.3z"/>
	<path class="st0" d="M329.5,31.5c-4.9,0-8.2,4-8.2,9.9c0,6.1,3.3,10.1,8.2,10.1c4.8,0,8.2-4.1,8.2-9.9
		C337.7,35.6,334.3,31.5,329.5,31.5z"/>
	<path class="st0" d="M447.3,31.5c-4.9,0-8.2,4-8.2,9.9c0,6.1,3.3,10.1,8.2,10.1c4.8,0,8.2-4.1,8.2-9.9
		C455.5,35.6,452.1,31.5,447.3,31.5z"/>
	<path class="st0" d="M368.9,31.4c-4.5,0-7.2,3.5-7.4,8.4h13.7C375.1,34.4,372.8,31.4,368.9,31.4z"/>
	<path class="st0" d="M681.7,41.4c0,6,2.7,9.5,7.3,9.5c2.3,0,4.6-1.1,6.7-3.1V34.3c-2.1-2-4.1-2.8-6.6-2.8
		C684.5,31.4,681.7,35.3,681.7,41.4z"/>
	<path class="st0" d="M998.7,31.5c-4.9,0-8.2,4-8.2,9.9c0,6.1,3.3,10.1,8.2,10.1c4.8,0,8.2-4.1,8.2-9.9
		C1007,35.6,1003.5,31.5,998.7,31.5z"/>
	<path class="st0" d="M965,46.8c0,3,1.8,4.7,5.5,4.7c2.5,0,4.6-0.7,6.6-2.4v-7.4h-5.1C967.4,41.6,965,43.2,965,46.8z"/>
	<path class="st0" d="M1113.7,31.4c-4.5,0-7.2,3.5-7.4,8.4h13.7C1120,34.4,1117.7,31.4,1113.7,31.4z"/>
	<path class="st1" d="M42.5,0C19,0,0,19,0,42.5S19,85,42.5,85S85,66,85,42.5S66,0,42.5,0z M65.7,63.2c0,1.4-1.1,2.6-2.6,2.6H51.3
		v-18h6l0.9-7h-6.9v-4.5c0-2,0.6-3.4,3.5-3.4h3.7v-6.3c-1.8-0.2-3.6-0.3-5.4-0.3c-5.3,0-9,3.3-9,9.3v5.2H38v7h6.1v18H21.8
		c-1.4,0-2.6-1.1-2.6-2.6V21.8c0-1.4,1.1-2.6,2.6-2.6h41.4c1.4,0,2.6,1.2,2.5,2.6V63.2z"/>
	<path class="st1" d="M127,37.1c0-8.8,5.1-14.1,12.7-14.1c2.8,0,5.4,0.6,7.8,1.6v-2.9c-2.3-0.9-5.1-1.4-8.4-1.4
		c-8.5,0-15.4,5.5-15.4,17c0,9.4,4.6,16.7,15.8,16.7c3.4,0,6.1-0.6,8.7-1.5v-2.8c-2.9,1.1-5.3,1.5-8.3,1.5
		C130.8,51.2,127,45.2,127,37.1z"/>
	<rect x="154.2" y="20.9" class="st1" width="3.2" height="32.5"/>
	<path class="st1" d="M168.2,37.1c0-8.8,5.1-14.1,12.7-14.1c2.8,0,5.4,0.6,7.8,1.6v-2.9c-2.3-0.9-5.1-1.4-8.4-1.4
		c-8.5,0-15.4,5.5-15.4,17c0,9.4,4.6,16.7,15.8,16.7c3.4,0,6.1-0.6,8.7-1.5v-2.8c-2.9,1.1-5.3,1.5-8.3,1.5
		C172,51.2,168.2,45.2,168.2,37.1z"/>
	<polygon class="st1" points="198.7,20.9 195.5,20.9 195.5,53.4 213.8,53.4 213.8,50.5 198.7,50.5 	"/>
	<path class="st1" d="M231.2,20.3c-10.2,0-14.8,7.4-14.8,16.9c0,9.7,4.5,16.7,14.7,16.7c10.1,0,14.8-7.3,14.8-16.9
		C245.9,27.6,241.4,20.3,231.2,20.3z M231.1,51.2c-8.1,0-11.5-6.2-11.5-14.1c0-7.6,3.3-14.1,11.5-14.1c8.1,0,11.5,6.3,11.5,14.1
		C242.6,44.9,239.3,51.2,231.1,51.2z"/>
	<rect x="263.6" y="40.1" class="st1" width="10.2" height="2.5"/>
	<path class="st1" d="M293,37.1c0-8.8,5.1-14.1,12.7-14.1c2.8,0,5.4,0.6,7.8,1.6v-2.9c-2.3-0.9-5.1-1.4-8.4-1.4
		c-8.5,0-15.4,5.5-15.4,17c0,9.4,4.6,16.7,15.8,16.7c3.4,0,6.1-0.6,8.7-1.5v-2.8c-2.9,1.1-5.3,1.5-8.3,1.5
		C296.8,51.2,293,45.2,293,37.1z"/>
	<path class="st1" d="M329.4,29c-6.8,0-11.4,5-11.4,12.5c0,7.3,4.7,12.5,11.3,12.5c6.7,0,11.6-5.1,11.6-12.4
		C340.9,34,336.3,29,329.4,29z M329.5,51.4c-4.9,0-8.2-4-8.2-10.1c0-5.9,3.3-9.9,8.2-9.9c4.8,0,8.2,4.1,8.2,10.1
		C337.7,47.4,334.3,51.4,329.5,51.4z"/>
	<path class="st1" d="M350.6,48.6V18.5h-3.1v30.9c0,2.6,1.2,4.4,4.4,4.4c0.8,0,1.8-0.1,2.8-0.5V51c-0.6,0.2-1.2,0.3-1.8,0.3
		C351.5,51.3,350.6,50.9,350.6,48.6z"/>
	<path class="st1" d="M368.8,29c-6.5,0-10.5,5-10.5,12.4c0,8.3,4.6,12.6,11.5,12.6c2.9,0,5.7-0.8,7.5-1.7v-2.4c-2,1-4.5,1.6-7,1.6
		c-5.6,0-8.8-3.2-8.9-9.4H378v-1.6C378,33.3,374.8,29,368.8,29z M361.5,39.8c0.1-4.9,2.9-8.4,7.4-8.4c4,0,6.3,3,6.3,8.4H361.5z"/>
	<path class="st1" d="M389.4,47.4V31.7h7.9v-2.3h-7.9v-6.5h-3.1v6.5h-4.4v2.3h4.4v15.8c0,5,3,6.5,6.4,6.5c2.1,0,3.8-0.3,4.7-0.6
		v-2.4c-1.1,0.3-2.5,0.5-3.9,0.5C391,51.4,389.4,50.2,389.4,47.4z"/>
	<rect x="403.4" y="29.4" class="st1" width="3.1" height="24"/>
	<rect x="403.4" y="20" class="st1" width="3.1" height="4.6"/>
	<polygon class="st1" points="422.7,50.2 422.6,50.2 414.9,29.4 411.8,29.4 420.7,53.4 424.3,53.4 433.2,29.4 430.3,29.4 	"/>
	<path class="st1" d="M447.3,29c-6.8,0-11.4,5-11.4,12.5c0,7.3,4.7,12.5,11.3,12.5c6.7,0,11.6-5.1,11.6-12.4
		C458.8,34,454.1,29,447.3,29z M447.3,51.4c-4.9,0-8.2-4-8.2-10.1c0-5.9,3.3-9.9,8.2-9.9c4.8,0,8.2,4.1,8.2,10.1
		C455.5,47.4,452.1,51.4,447.3,51.4z"/>
	<path class="st1" d="M494.1,31.9L494.1,31.9c-2.3-2.1-4.5-2.9-7.3-2.9c-6.4,0-10.3,4.9-10.3,12.9c0,7.3,3.7,12,9.7,12
		c3,0,5.6-1.2,8.1-3.5h0v3h2.9V18.5h-3.1V31.9z M494.1,48.4c-1.9,1.9-4.4,2.9-6.8,2.9c-4.7,0-7.5-3.6-7.5-9.5
		c0-6.4,2.9-10.5,7.6-10.5c2.5,0,4.5,0.9,6.7,2.8V48.4z"/>
	<path class="st1" d="M514.3,29c-6.5,0-10.5,5-10.5,12.4c0,8.3,4.6,12.6,11.5,12.6c2.9,0,5.7-0.8,7.5-1.7v-2.4c-2,1-4.5,1.6-7,1.6
		c-5.6,0-8.8-3.2-8.9-9.4h16.6v-1.6C523.6,33.3,520.3,29,514.3,29z M507,39.8c0.1-4.9,2.9-8.4,7.4-8.4c4,0,6.3,3,6.3,8.4H507z"/>
	<rect x="543.8" y="20.9" class="st1" width="3.2" height="32.5"/>
	<path class="st1" d="M567.2,29c-3.3,0-6.2,1.3-8.5,3.5h-0.1v-3.1h-2.8v24h3.1v-19c2-1.8,4.6-2.8,7-2.8c3.8,0,6.1,2.4,6.1,6.2v15.6
		h3.1V37.5C575.1,32,572,29,567.2,29z"/>
	<polygon class="st1" points="591.1,50.2 591,50.2 583.4,29.4 580.3,29.4 589.2,53.4 592.8,53.4 601.7,29.4 598.8,29.4 	"/>
	<path class="st1" d="M614.9,29c-6.5,0-10.5,5-10.5,12.4c0,8.3,4.6,12.6,11.5,12.6c2.9,0,5.7-0.8,7.5-1.7v-2.4c-2,1-4.5,1.6-7,1.6
		c-5.6,0-8.8-3.2-8.9-9.4h16.6v-1.6C624.1,33.3,620.9,29,614.9,29z M607.5,39.8c0.1-4.9,2.9-8.4,7.4-8.4c4,0,6.3,3,6.3,8.4H607.5z"
		/>
	<path class="st1" d="M632.6,35.5c0-2.9,2-4.2,5.1-4.2c1.9,0,3.6,0.5,5.1,1.2V30c-1.2-0.5-3.2-1.1-5.5-1.1c-4.6,0-7.8,2.1-7.8,6.5
		c0,8.4,11.3,5.7,11.3,11.6c0,3.6-2.4,4.6-5.2,4.6c-2.2,0-4.3-0.6-6.3-1.4v2.5c2.1,0.9,4.6,1.3,6.6,1.3c4.3,0,8.1-1.9,8.1-6.8
		C643.9,38.6,632.6,41.6,632.6,35.5z"/>
	<path class="st1" d="M654.9,47.4V31.7h7.9v-2.3h-7.9v-6.5h-3.1v6.5h-4.4v2.3h4.4v15.8c0,5,3,6.5,6.4,6.5c2.1,0,3.8-0.3,4.7-0.6
		v-2.4c-1.1,0.3-2.5,0.5-3.9,0.5C656.4,51.4,654.9,50.2,654.9,47.4z"/>
	<rect x="668.8" y="20" class="st1" width="3.1" height="4.6"/>
	<rect x="668.8" y="29.4" class="st1" width="3.1" height="24"/>
	<path class="st1" d="M696,32.2L696,32.2c-2.1-2.1-4.8-3.2-7.6-3.2c-6.1,0-10,4.8-10,12.5c0,7.5,3.6,11.9,9.7,11.9
		c2.8,0,5.4-1.2,7.6-3.4h0.1v4.9c0,4.2-2.4,6.1-7.5,6.1c-2.5,0-4.8-0.6-7.5-1.9v2.6c2.5,1.2,5.1,1.8,8,1.8c6.7,0,10-3,10-8.9V29.4
		H696V32.2z M695.7,47.8c-2.1,2-4.4,3.1-6.7,3.1c-4.7,0-7.3-3.5-7.3-9.5c0-6.1,2.8-10,7.4-10c2.5,0,4.6,0.9,6.6,2.8V47.8z"/>
	<path class="st1" d="M723.7,49.8V37.3c0-5.9-2.5-8.4-8.4-8.4c-2.3,0-4.8,0.4-7.4,1.2l0,2.4c2.9-0.8,5.1-1.1,6.9-1.1
		c4.2,0,5.8,1.8,5.8,5.9v2.2h-5.7c-6.2,0-9.6,2.4-9.6,7.5c0,4.4,2.7,6.9,7.7,6.9c3.3,0,6-1.2,7.9-3c0.3,2.1,1.5,3,3.5,3
		c0.9,0,1.7-0.2,2.4-0.4v-2c-0.4,0-0.9,0.1-1.2,0.1C724.3,51.7,723.7,51.1,723.7,49.8z M720.5,49c-2,1.7-4.1,2.4-6.6,2.4
		c-3.7,0-5.5-1.6-5.5-4.7c0-3.6,2.4-5.1,7.1-5.1h5.1V49z"/>
	<path class="st1" d="M733.9,41.3c0-6.5,3.6-9.8,8.8-9.8c2,0,3.8,0.4,5.7,1.1V30c-1.9-0.7-3.9-1-6-1c-6.9,0-11.8,4.4-11.8,12.5
		c0,7.2,3.9,11.6,9.6,12.4c1.9,2.3,2.8,4,2.8,5.2c0,1.3-0.8,1.9-2.1,1.9c-1,0-1.7-0.1-2.5-0.4v2.2c0.9,0.2,1.9,0.4,2.9,0.4
		c2.5,0,4.8-1.1,4.8-3.8c0-1.8-1.3-3.6-3.2-5.5c2-0.1,4-0.6,6.1-1.3V50c-2.4,1-4.4,1.4-6.5,1.4C737.5,51.4,733.9,48,733.9,41.3z"/>
	<path class="st1" d="M760,22.4c2.2,0,3,2.6,6.6,2.6c2.8,0,4.4-1.7,4.4-4.7h-2.4c0,1.6-0.5,2.4-2.2,2.4c-2.6,0-3.3-2.5-6.6-2.5
		c-2.7,0-4.3,1.6-4.3,4.6h2.4C757.9,23.2,758.6,22.4,760,22.4z"/>
	<path class="st1" d="M771.6,49.8V37.3c0-5.9-2.5-8.4-8.4-8.4c-2.3,0-4.8,0.4-7.4,1.2l0,2.4c2.9-0.8,5.1-1.1,6.9-1.1
		c4.2,0,5.8,1.8,5.8,5.9v2.2h-5.7c-6.2,0-9.6,2.4-9.6,7.5c0,4.4,2.7,6.9,7.7,6.9c3.3,0,6-1.2,7.9-3c0.3,2.1,1.5,3,3.5,3
		c0.9,0,1.7-0.2,2.4-0.4v-2c-0.4,0-0.9,0.1-1.2,0.1C772.2,51.7,771.6,51.1,771.6,49.8z M768.5,49c-2,1.7-4.1,2.4-6.6,2.4
		c-3.7,0-5.5-1.6-5.5-4.7c0-3.6,2.4-5.1,7.1-5.1h5.1V49z"/>
	<path class="st1" d="M790,29c-6.8,0-11.4,5-11.4,12.5c0,7.3,4.7,12.5,11.3,12.5c6.7,0,11.6-5.1,11.6-12.4C801.5,34,796.9,29,790,29
		z M790.1,51.4c-4.9,0-8.2-4-8.2-10.1c0-5.9,3.3-9.9,8.2-9.9c4.8,0,8.2,4.1,8.2,10.1C798.3,47.4,794.9,51.4,790.1,51.4z"/>
	<path class="st1" d="M829.8,29c-6.5,0-10.5,5-10.5,12.4c0,8.3,4.6,12.6,11.5,12.6c2.9,0,5.7-0.8,7.5-1.7v-2.4c-2,1-4.5,1.6-7,1.6
		c-5.6,0-8.8-3.2-8.9-9.4h16.6v-1.6C839.1,33.3,835.8,29,829.8,29z M822.5,39.8c0.1-4.9,2.9-8.4,7.4-8.4c4,0,6.3,3,6.3,8.4H822.5z"
		/>
	<path class="st1" d="M860.8,37.1c0-8.8,5.1-14.1,12.7-14.1c2.8,0,5.4,0.6,7.8,1.6v-2.9c-2.3-0.9-5.1-1.4-8.4-1.4
		c-8.5,0-15.4,5.5-15.4,17c0,9.4,4.6,16.7,15.8,16.7c3.4,0,6.1-0.6,8.7-1.5v-2.8c-2.9,1.1-5.3,1.5-8.3,1.5
		C864.6,51.2,860.8,45.2,860.8,37.1z"/>
	<path class="st1" d="M890.5,33.6L890.5,33.6l-0.1-4.2h-2.8v24h3.1V35.7c2.7-2.5,5.6-3.8,8.4-3.8v-3C896,28.9,893.3,30.4,890.5,33.6
		z"/>
	<rect x="904.4" y="20" class="st1" width="3.1" height="4.6"/>
	<rect x="904.4" y="29.4" class="st1" width="3.1" height="24"/>
	<path class="st1" d="M932.3,49.8V37.3c0-5.9-2.5-8.4-8.4-8.4c-2.3,0-4.8,0.4-7.4,1.2l0,2.4c2.9-0.8,5.1-1.1,6.9-1.1
		c4.2,0,5.8,1.8,5.8,5.9v2.2h-5.7c-6.2,0-9.6,2.4-9.6,7.5c0,4.4,2.7,6.9,7.7,6.9c3.3,0,6-1.2,7.9-3c0.3,2.1,1.5,3,3.5,3
		c0.9,0,1.7-0.2,2.4-0.4v-2c-0.4,0-0.9,0.1-1.2,0.1C932.9,51.7,932.3,51.1,932.3,49.8z M929.2,49c-2,1.7-4.1,2.4-6.6,2.4
		c-3.7,0-5.5-1.6-5.5-4.7c0-3.6,2.4-5.1,7.1-5.1h5.1V49z"/>
	<path class="st1" d="M942.6,41.3c0-6.5,3.6-9.8,8.8-9.8c2,0,3.8,0.4,5.7,1.1V30c-1.9-0.7-3.9-1-6-1c-6.9,0-11.8,4.4-11.8,12.5
		c0,7.2,3.9,11.6,9.6,12.4c1.9,2.3,2.8,4,2.8,5.2c0,1.3-0.8,1.9-2.1,1.9c-1,0-1.7-0.1-2.5-0.4v2.2c0.9,0.2,1.9,0.4,2.9,0.4
		c2.5,0,4.8-1.1,4.8-3.8c0-1.8-1.3-3.6-3.2-5.5c2-0.1,4-0.6,6.1-1.3V50c-2.4,1-4.4,1.4-6.5,1.4C946.1,51.4,942.6,48,942.6,41.3z"/>
	<path class="st1" d="M980.3,49.8V37.3c0-5.9-2.5-8.4-8.4-8.4c-2.3,0-4.8,0.4-7.4,1.2l0,2.4c2.9-0.8,5.1-1.1,6.9-1.1
		c4.2,0,5.8,1.8,5.8,5.9v2.2h-5.7c-6.2,0-9.6,2.4-9.6,7.5c0,4.4,2.7,6.9,7.7,6.9c3.3,0,6-1.2,7.9-3c0.3,2.1,1.5,3,3.5,3
		c0.9,0,1.7-0.2,2.4-0.4v-2c-0.4,0-0.9,0.1-1.2,0.1C980.9,51.7,980.3,51.1,980.3,49.8z M977.1,49c-2,1.7-4.1,2.4-6.6,2.4
		c-3.7,0-5.5-1.6-5.5-4.7c0-3.6,2.4-5.1,7.1-5.1h5.1V49z"/>
	<path class="st1" d="M968.7,22.4c2.2,0,3,2.6,6.6,2.6c2.8,0,4.4-1.7,4.4-4.7h-2.4c0,1.6-0.5,2.4-2.2,2.4c-2.6,0-3.3-2.5-6.6-2.5
		c-2.7,0-4.3,1.6-4.3,4.6h2.4C966.6,23.2,967.3,22.4,968.7,22.4z"/>
	<path class="st1" d="M998.7,29c-6.8,0-11.4,5-11.4,12.5c0,7.3,4.7,12.5,11.3,12.5c6.7,0,11.6-5.1,11.6-12.4
		C1010.2,34,1005.6,29,998.7,29z M998.7,51.4c-4.9,0-8.2-4-8.2-10.1c0-5.9,3.3-9.9,8.2-9.9c4.8,0,8.2,4.1,8.2,10.1
		C1007,47.4,1003.5,51.4,998.7,51.4z"/>
	<polygon class="st1" points="1033.4,20.9 1030.2,20.9 1030.2,53.4 1048.5,53.4 1048.5,50.5 1033.4,50.5 	"/>
	<rect x="1053.3" y="29.4" class="st1" width="3.1" height="24"/>
	<rect x="1053.3" y="20" class="st1" width="3.1" height="4.6"/>
	<polygon class="st1" points="1072.6,50.2 1072.5,50.2 1064.8,29.4 1061.8,29.4 1070.7,53.4 1074.2,53.4 1083.2,29.4 1080.2,29.4 	
		"/>
	<path class="st1" d="M1091.5,33.6L1091.5,33.6l-0.1-4.2h-2.8v24h3.1V35.7c2.7-2.5,5.6-3.8,8.4-3.8v-3
		C1097,28.9,1094.4,30.4,1091.5,33.6z"/>
	<path class="st1" d="M1122.9,40.5c0-7.2-3.2-11.5-9.2-11.5c-6.5,0-10.5,5-10.5,12.4c0,8.3,4.6,12.6,11.5,12.6
		c2.9,0,5.7-0.8,7.5-1.7v-2.4c-2,1-4.5,1.6-7,1.6c-5.6,0-8.8-3.2-8.9-9.4h16.6V40.5z M1106.4,39.8c0.1-4.9,2.9-8.4,7.4-8.4
		c4,0,6.3,3,6.3,8.4H1106.4z"/>
</g>
</svg>
