<?xml version="1.0" encoding="utf-8"?>
<!-- Generator: Adobe Illustrator 25.2.3, SVG Export Plug-In . SVG Version: 6.00 Build 0)  -->
<svg version="1.1" id="Layer_1" xmlns="http://www.w3.org/2000/svg" xmlns:xlink="http://www.w3.org/1999/xlink" x="0px" y="0px"
	 viewBox="0 0 360.8 85" style="enable-background:new 0 0 360.8 85;" xml:space="preserve">
<style type="text/css">
	.st0{fill:none;}
	.st1{fill:#FAF5F5;}
</style>
<g>
	<path class="st0" d="M204,31.5c-4.9,0-8.2,4-8.2,9.9c0,6.1,3.3,10.1,8.2,10.1c4.8,0,8.2-4.1,8.2-9.9
		C212.2,35.6,208.8,31.5,204,31.5z"/>
	<path class="st0" d="M261.1,31.4c-4.5,0-7.2,3.5-7.4,8.4h13.7C267.4,34.4,265.1,31.4,261.1,31.4z"/>
	<path class="st0" d="M65.2,26.9c-1.2-3.2-3.8-5.8-7-7c-1.9-0.7-3.8-1.1-5.8-1.1c-2.5-0.1-3.4-0.1-9.8-0.1l-0.1,0.1
		c-6.5,0-7.3,0-9.8,0.1c-2,0-3.9,0.4-5.8,1.1c-3.2,1.2-5.8,3.8-7,7c-0.7,1.9-1.1,3.8-1.1,5.8c-0.1,2.5-0.1,3.4-0.1,9.8
		c0,6.5,0,7.3,0.1,9.8c0.1,1.9,0.5,3.9,1.2,5.7c1.2,3.2,3.8,5.8,7,7c1.9,0.7,3.8,1.1,5.8,1.1c2.5,0.1,3.3,0.1,9.8,0.1
		c6.5,0,7.3,0,9.8-0.1c2,0,3.9-0.4,5.8-1.1c3.2-1.2,5.8-3.8,7-7c0.7-1.9,1.1-3.8,1.1-5.8c0.1-2.5,0.1-3.3,0.1-9.8s0-7.3-0.1-9.8
		C66.2,30.7,65.9,28.8,65.2,26.9z M61.9,52.1c0,1.5-0.3,3-0.8,4.4c-0.8,2.1-2.4,3.7-4.5,4.5c-1.4,0.5-2.9,0.8-4.4,0.8
		C49.6,62,48.9,62,42.5,62s-7.1,0-9.6-0.1c-1.5,0-3-0.3-4.4-0.8c-2.1-0.8-3.7-2.5-4.5-4.5c-0.5-1.4-0.8-2.9-0.9-4.4
		C23,49.6,23,48.8,23,42.5s0-7.1,0.2-9.6c0-1.5,0.3-3,0.8-4.4c0.8-2.1,2.4-3.7,4.5-4.5c1.4-0.5,2.9-0.8,4.4-0.8
		c2.5-0.1,3.3-0.1,9.6-0.1s7.1,0,9.6,0.2c1.5,0,3,0.3,4.4,0.8c2.1,0.8,3.7,2.4,4.5,4.5c0.5,1.4,0.8,2.9,0.8,4.4
		c0.1,2.5,0.1,3.3,0.1,9.6S62,49.6,61.9,52.1z"/>
	<circle class="st0" cx="55.2" cy="29.8" r="2.9"/>
	<path class="st0" d="M278.4,46.8c0,3,1.8,4.7,5.5,4.7c2.5,0,4.6-0.7,6.6-2.4v-7.4h-5.1C280.8,41.6,278.4,43.2,278.4,46.8z"/>
	<path class="st0" d="M42.5,30.3c-6.7,0-12.2,5.5-12.2,12.2s5.5,12.2,12.2,12.2s12.2-5.5,12.2-12.2S49.2,30.3,42.5,30.3z M42.5,50.4
		c-4.4,0-7.9-3.6-7.9-7.9s3.6-7.9,7.9-7.9s7.9,3.6,7.9,7.9S46.9,50.4,42.5,50.4z"/>
	<path class="st0" d="M347,31.5c-4.9,0-8.2,4-8.2,9.9c0,6.1,3.3,10.1,8.2,10.1c4.8,0,8.2-4.1,8.2-9.9
		C355.2,35.6,351.8,31.5,347,31.5z"/>
	<path class="st1" d="M61,28.5c-0.8-2.1-2.4-3.7-4.5-4.5c-1.4-0.5-2.9-0.8-4.4-0.8C49.6,23,48.8,23,42.5,23s-7.1,0-9.6,0.1
		c-1.5,0-3,0.3-4.4,0.8c-2.1,0.8-3.7,2.4-4.5,4.5c-0.5,1.4-0.8,2.9-0.8,4.4C23,35.4,23,36.2,23,42.5s0,7.1,0.1,9.6
		c0,1.5,0.3,3,0.9,4.4c0.8,2.1,2.4,3.7,4.5,4.5c1.4,0.5,2.9,0.8,4.4,0.8c2.5,0.1,3.3,0.1,9.6,0.1s7.1,0,9.6-0.1c1.5,0,3-0.3,4.4-0.8
		c2.1-0.8,3.7-2.4,4.5-4.5c0.5-1.4,0.8-2.9,0.8-4.4c0.1-2.5,0.1-3.3,0.1-9.6s0-7.1-0.1-9.6C61.9,31.4,61.6,29.9,61,28.5z M42.5,54.7
		c-6.7,0-12.2-5.5-12.2-12.2s5.5-12.2,12.2-12.2s12.2,5.5,12.2,12.2S49.2,54.7,42.5,54.7z M55.2,32.7c-1.6,0-2.9-1.3-2.9-2.9
		s1.3-2.9,2.9-2.9s2.9,1.3,2.9,2.9S56.8,32.7,55.2,32.7z"/>
	<path class="st1" d="M42.5,0C19,0,0,19,0,42.5S19,85,42.5,85S85,66,85,42.5S66,0,42.5,0z M66.3,52.3c0,2-0.4,3.9-1.1,5.8
		c-1.2,3.2-3.8,5.8-7,7c-1.9,0.7-3.8,1.1-5.8,1.1c-2.5,0.1-3.4,0.1-9.8,0.1c-6.5,0-7.3,0-9.8-0.1c-2,0-3.9-0.4-5.8-1.1
		c-3.2-1.2-5.8-3.8-7-7c-0.7-1.8-1.1-3.7-1.2-5.7c-0.1-2.5-0.1-3.4-0.1-9.8c0-6.5,0-7.3,0.1-9.8c0-2,0.4-3.9,1.1-5.8
		c1.2-3.2,3.8-5.8,7-7c1.9-0.7,3.8-1.1,5.8-1.1c2.5-0.1,3.3-0.1,9.8-0.1l0.1-0.1c6.5,0,7.3,0,9.8,0.1c2,0,3.9,0.4,5.8,1.1
		c3.2,1.2,5.8,3.8,7,7c0.7,1.9,1.1,3.8,1.1,5.8c0.1,2.5,0.1,3.3,0.1,9.8S66.4,49.8,66.3,52.3z"/>
	<circle class="st1" cx="42.5" cy="42.5" r="7.9"/>
	<path class="st1" d="M126.6,41.3c0-6.5,3.6-9.8,8.8-9.8c2,0,3.8,0.4,5.7,1.1V30c-1.9-0.7-3.9-1-6-1c-6.9,0-11.8,4.4-11.8,12.5
		c0,7.9,4.7,12.5,11.4,12.5c2.4,0,4.7-0.5,7.1-1.4V50c-2.4,1-4.4,1.4-6.5,1.4C130.1,51.4,126.6,48,126.6,41.3z"/>
	<rect x="147.7" y="20" class="st1" width="3.1" height="4.6"/>
	<rect x="147.7" y="29.4" class="st1" width="3.1" height="24"/>
	<path class="st1" d="M160.6,41.3c0-6.5,3.6-9.8,8.8-9.8c2,0,3.8,0.4,5.7,1.1V30c-1.9-0.7-3.9-1-6-1c-6.9,0-11.8,4.4-11.8,12.5
		c0,7.9,4.7,12.5,11.4,12.5c2.4,0,4.7-0.5,7.1-1.4V50c-2.4,1-4.4,1.4-6.5,1.4C164.1,51.4,160.6,48,160.6,41.3z"/>
	<path class="st1" d="M184.8,48.6V18.5h-3.1v30.9c0,2.6,1.2,4.4,4.4,4.4c0.8,0,1.8-0.1,2.8-0.5V51c-0.6,0.2-1.2,0.3-1.8,0.3
		C185.7,51.3,184.8,50.9,184.8,48.6z"/>
	<path class="st1" d="M204,29c-6.8,0-11.4,5-11.4,12.5c0,7.3,4.7,12.5,11.3,12.5c6.7,0,11.6-5.1,11.6-12.4C215.4,34,210.8,29,204,29
		z M204,51.4c-4.9,0-8.2-4-8.2-10.1c0-5.9,3.3-9.9,8.2-9.9c4.8,0,8.2,4.1,8.2,10.1C212.2,47.4,208.8,51.4,204,51.4z"/>
	<rect x="222.2" y="48.1" class="st1" width="3.6" height="5.3"/>
	<path class="st1" d="M238.8,47.4V31.7h7.9v-2.3h-7.9v-6.5h-3.1v6.5h-4.4v2.3h4.4v15.8c0,5,3,6.5,6.4,6.5c2.1,0,3.8-0.3,4.7-0.6
		v-2.4c-1.1,0.3-2.5,0.5-3.9,0.5C240.4,51.4,238.8,50.2,238.8,47.4z"/>
	<path class="st1" d="M261.1,29c-6.5,0-10.5,5-10.5,12.4c0,8.3,4.6,12.6,11.5,12.6c2.9,0,5.7-0.8,7.5-1.7v-2.4c-2,1-4.5,1.6-7,1.6
		c-5.6,0-8.8-3.2-8.9-9.4h16.6v-1.6C270.3,33.3,267.1,29,261.1,29z M253.7,39.8c0.1-4.9,2.9-8.4,7.4-8.4c4,0,6.3,3,6.3,8.4H253.7z"
		/>
	<path class="st1" d="M293.6,49.8V37.3c0-5.9-2.5-8.4-8.4-8.4c-2.3,0-4.8,0.4-7.4,1.2l0,2.4c2.9-0.8,5.1-1.1,6.9-1.1
		c4.2,0,5.8,1.8,5.8,5.9v2.2h-5.7c-6.2,0-9.6,2.4-9.6,7.5c0,4.4,2.7,6.9,7.7,6.9c3.3,0,6-1.2,7.9-3c0.3,2.1,1.5,3,3.5,3
		c0.9,0,1.7-0.2,2.4-0.4v-2c-0.4,0-0.9,0.1-1.2,0.1C294.3,51.7,293.6,51.1,293.6,49.8z M290.5,49c-2,1.7-4.1,2.4-6.6,2.4
		c-3.7,0-5.5-1.6-5.5-4.7c0-3.6,2.4-5.1,7.1-5.1h5.1V49z"/>
	<path class="st1" d="M307,47.4V31.7h7.9v-2.3H307v-6.5h-3.1v6.5h-4.4v2.3h4.4v15.8c0,5,3,6.5,6.4,6.5c2.1,0,3.8-0.3,4.7-0.6v-2.4
		c-1.1,0.3-2.5,0.5-3.9,0.5C308.5,51.4,307,50.2,307,47.4z"/>
	<path class="st1" d="M323.8,33.6L323.8,33.6l-0.1-4.2h-2.8v24h3.1V35.7c2.7-2.5,5.6-3.8,8.4-3.8v-3
		C329.4,28.9,326.7,30.4,323.8,33.6z"/>
	<path class="st1" d="M347,29c-6.8,0-11.4,5-11.4,12.5c0,7.3,4.7,12.5,11.3,12.5c6.7,0,11.6-5.1,11.6-12.4C358.4,34,353.8,29,347,29
		z M347,51.4c-4.9,0-8.2-4-8.2-10.1c0-5.9,3.3-9.9,8.2-9.9c4.8,0,8.2,4.1,8.2,10.1C355.2,47.4,351.8,51.4,347,51.4z"/>
</g>
</svg>
