<svg xmlns="http://www.w3.org/2000/svg" viewBox="0 0 229.58 266.77"><defs><style>.cls-1,.cls-4{fill:none;}.cls-2{fill:#a1a1a1;}.cls-3{fill:#727272;}.cls-4{stroke:#727272;stroke-linecap:round;stroke-linejoin:round;stroke-width:0;}.cls-5{fill:#7b7b7b;}.cls-6{fill:#fff;}</style></defs><g id="Layer_2" data-name="Layer 2"><g id="LOGOTIPO_VECTOR_WHITE" data-name="LOGOTIPO VECTOR WHITE"><path class="cls-1" d="M208.42,54.08c-2.27-2.9-5.07-5.66-7.66-8.6a61,61,0,0,0-6.94-7,25.94,25.94,0,0,0-3.49-2.59c-.22-.14-6.91-4.85-7.06-4.64.93.82,8.42,7.13,9.32,8,2.46,2.31,4.76,4.78,7.14,7.18l7.81,8.67a67.68,67.68,0,0,1,11.3,20.24c-.61-2.71-1.31-5.39-2.12-8A93.46,93.46,0,0,0,208.42,54.08Z"/><path class="cls-1" d="M6.76,97.35C8,86.9,11.12,74.35,16,65.1,16.92,63.43,20.76,57,21.31,55c-1.48,1.35-5.66,7.38-6.55,8.85C2,85.35.86,106.14,7.86,130.29c7.65,26.39,16.21,38.64,35.66,52.17,1.18.82,6,3.06,7.57,2.41a45.92,45.92,0,0,1-5-2.55c-4.48-2.76-9.38-7.67-13-11.52-11.58-12.42-18-24.07-23.06-40.42C7.3,119.41,5.4,108.67,6.76,97.35Z"/><path class="cls-1" d="M86.37,12.21c-1.28.43-11.06,3.47-11,3.74,1.61-.38,17.23-3.75,17.45-3.79,12.21-2.17,29-2.38,41.28-.93C121,8.18,103,6.63,86.37,12.21Z"/><path class="cls-1" d="M44,175.23c-10.65-6.7-18.06-18-23.69-29l.09.18C26,157.51,32.5,166.92,42.12,175c7.33,6.17,12.33,12,27.32,13.32l.6,0c-2.32-.92-10.52-4.22-12.48-5.23C49.73,179.1,51.61,180.05,44,175.23Z"/><path class="cls-1" d="M197.76,36.8h0c-20-18.87-44.58-31.15-74.83-32-1.27,0-5.2.47-8.9.91,2.26,0,4.53.2,6.82.48,6.69,1.24,13.78,2.21,20.42,3.67,20.79,4.6,39.73,12.92,55.36,27.41,3.71,3.43,6.86,7.42,10.28,11.13,1.49,1.82,2.94,3.65,4.36,5.51a68.94,68.94,0,0,0-5.33-8.38C203.25,42.08,199.34,38.77,197.76,36.8Z"/><path class="cls-1" d="M93.09,190.35a12.06,12.06,0,0,0,1.34-.09C94,190.34,93.47,190.31,93.09,190.35Z"/><path class="cls-1" d="M188.2,189.7c-5.21,3.82-10.36,7.35-15.58,10.63-3.66,2.61-7.29,5.09-10.46,7,8.29-2.84,23.82-14.36,26-16.27,2.92-2.51,15.53-14.56,15.34-14.75-.25.24-.89.8-1.77,1.55A111.39,111.39,0,0,1,188.2,189.7Zm-.13.84-.23.15.18-.2,0,0,0,0a1,1,0,0,0,.18-.06Z"/><path class="cls-2" d="M10.65,90.21c-3.83,19.46.64,38.17,9.61,56,5.63,11.08,13,22.35,23.69,29,7.66,4.82,5.78,3.87,13.61,7.91,2,1,10.16,4.31,12.48,5.23,7.34.58,15.5.21,22.75.16.84,0,2.3-.48,2.4.74a.83.83,0,0,1-.76,1,12.06,12.06,0,0,1-1.34.09c-1.21.16-3.92.16-5.13.31-.36,0-2.61.09-5.19.19,5.2.07,12.72.2,12.72.2l2.29.06-1.36-4.73s-2,0-3-.06a93.2,93.2,0,0,1-51.91-20c-19.63-15.64-29.49-36-28.32-61,.94-19.87,9.77-38,20.51-54.21C40.91,40.3,52.31,30.88,63,23.48,34.39,35.8,16.52,60.42,10.65,90.21Z"/><path class="cls-2" d="M201.77,177.84c-4,3.38-13.05,10.79-15,12.19-4.08,2.93-9.15,6.74-14.15,10.3,5.22-3.28,10.37-6.81,15.58-10.63A111.39,111.39,0,0,0,201.77,177.84Z"/><path class="cls-2" d="M224.38,137.3c2.46-12.93,1.85-26.28.67-38.75-.58-6.24-2.36-17.56-4-21.78a90.72,90.72,0,0,0-4.35-9.46c.81,2.64,1.51,5.32,2.12,8,.24.67.49,1.33.72,2,1.74,5,3.39,15.06,3.88,19.47a149.22,149.22,0,0,1,0,36.45c-.29,2.11-1.28,8-2.13,9.91a53.48,53.48,0,0,0-1.3,5.71c.85-1.28,3.11-7.32,3.64-8.66C223.72,140.05,224.35,137.49,224.38,137.3Zm-.9-43.74.13.6Zm.38,42.9c-.14.56-.27,1.12-.41,1.67A5.22,5.22,0,0,1,223.86,136.46Z"/><path class="cls-2" d="M186.88,186.46C207.32,171.21,220,152,221.32,126.23c-3.18,17.06-15.14,34-26.09,46.59-16,18.43-30.24,28.63-51.62,37.81-7.57,3.25-21.23,4-30.12,3.86-1.18,0-4.42,0-4.42,0l-1.21,5.19s5.24-.11,6.47-.15c6.13-.2,18.33-1.08,22.72-1.67l.35-.17C155,208.88,171.16,198.19,186.88,186.46Z"/><path class="cls-2" d="M114,5.67c3.7-.44,7.63-1,8.9-.91,30.25.89,54.86,13.17,74.83,32h0c1.58,2,5.49,5.28,8.18,8.69a68.94,68.94,0,0,1,5.33,8.38A85,85,0,0,1,222.22,72c2.11,5,3.27,10.14,4.51,15.3C224.41,63.82,216.1,42.82,197,27.4,172.2,7.42,143.6-2.41,112,.5,94.9,2.07,73.41,11.19,58.54,20c1.09-.32,7.24-2.48,8.21-2.88C81.82,10.82,97.51,5.33,114,5.67Z"/><path class="cls-3" d="M223.45,138.13c.14-.55.27-1.11.41-1.67A5.22,5.22,0,0,0,223.45,138.13Z"/><path class="cls-4" d="M223.61,94.16l-.13-.6"/><path class="cls-5" d="M187.84,190.69l.23-.15,0,0Z"/><path class="cls-5" d="M188.07,190.54l.13-.11a1,1,0,0,1-.18.06Z"/><path class="cls-6" d="M227.75,91.36c-.36-1.34-.69-2.69-1-4-1.24-5.16-2.4-10.35-4.51-15.3a85,85,0,0,0-10.95-18.15c-1.42-1.86-2.87-3.69-4.36-5.51-3.42-3.71-6.57-7.7-10.28-11.13C181,22.74,162.06,14.42,141.27,9.82c-6.64-1.46-13.73-2.43-20.42-3.67-2.29-.28-4.56-.43-6.82-.48-16.52-.34-32.21,5.15-47.28,11.45-1,.4-7.12,2.56-8.21,2.88h0c-18.95,9.3-30,18.89-42,36.28C5.6,72.11-2,89.39.46,109.1c1.78,14.41,6.79,30.17,12.25,43.49,5.94,14.46,16.39,25.43,30,32.92,11.75,6.49,25.79,8.35,39.11,9.21,1.61.1,4.6.57,4.3-1.15s-3.78-1.64-6.88-1.66-2.36-.39-4.7-.8c1.12,0,5-.14,8.27-.26,2.58-.1,4.83-.19,5.19-.19,1.21-.15,3.92-.15,5.13-.31.38,0,.9,0,1.34-.09a.83.83,0,0,0,.76-1c-.1-1.22-1.56-.74-2.4-.74-7.25.05-15.41.42-22.75-.16l-.6,0c-15-1.29-20-7.15-27.32-13.32-9.62-8.09-16.13-17.5-21.77-28.65l-.09-.18c-9-17.8-13.44-36.51-9.61-56C16.52,60.42,34.39,35.8,63,23.48c4.31-1.72,7.45-2.53,11.87-3.91,17.91-5.59,38.91-6.77,57.51-5.89,13.13.62,24.46,2.94,35.93,10.48,10,6.61,19.07,14.54,27.92,22.72,22.77,21,26.31,48.11,25.2,77,0,.78-.06,1.56-.1,2.34-1.36,25.76-14,45-34.44,60.23-15.72,11.73-31.92,22.42-49.48,31.27l-.35.17c-1,.48-3.44,1.6-4,1.82a52.23,52.23,0,0,1-8.09,3c-.93.27-2.86,1-2.51,2.21s4.26.57,5.06.43c3.45-.62,4.3-.68,7.13-2,7.77-3.57,17.52-7.3,25.19-11.07,17.68-8.68,35.86-20.46,49.18-38.77,9.16-12.57,17-26.61,19.48-42C230.65,118.36,229.09,105.05,227.75,91.36ZM33.14,170.8c3.58,3.85,8.48,8.76,13,11.52a45.92,45.92,0,0,0,5,2.55c-1.56.65-6.39-1.59-7.57-2.41-19.45-13.53-28-25.78-35.66-52.17-7-24.15-5.91-44.94,6.9-66.47.89-1.47,5.07-7.5,6.55-8.85-.55,2-4.39,8.46-5.28,10.13-4.91,9.25-8,21.8-9.27,32.25-1.36,11.32.54,22.06,3.32,33C15.11,146.73,21.56,158.38,33.14,170.8ZM92.84,12.16C92.62,12.2,77,15.57,75.39,16c-.08-.27,9.7-3.31,11-3.74,16.6-5.58,34.59-4,47.75-1C121.82,9.78,105.05,10,92.84,12.16Zm128.47,131c.85-2,1.84-7.8,2.13-9.91a149.22,149.22,0,0,0,0-36.45c-.49-4.41-2.14-14.43-3.88-19.47-.23-.68-.48-1.34-.72-2a67.68,67.68,0,0,0-11.3-20.24l-7.81-8.67c-2.38-2.4-4.68-4.87-7.14-7.18-.9-.85-8.39-7.16-9.32-8,.15-.21,6.84,4.5,7.06,4.64a25.94,25.94,0,0,1,3.49,2.59,61,61,0,0,1,6.94,7c2.59,2.94,5.39,5.7,7.66,8.6a93.46,93.46,0,0,1,8.3,13.23,90.72,90.72,0,0,1,4.35,9.46c1.62,4.22,3.4,15.54,4,21.78,1.18,12.47,1.79,25.82-.67,38.75,0,.19-.66,2.75-.73,2.93-.53,1.34-2.79,7.38-3.64,8.66A53.48,53.48,0,0,1,221.31,143.18ZM188.2,191c-2.22,1.91-17.75,13.43-26,16.27,3.17-1.89,6.8-4.37,10.46-7,5-3.56,10.07-7.37,14.15-10.3,1.95-1.4,11-8.81,15-12.19.88-.75,1.52-1.31,1.77-1.55C203.73,176.48,191.12,188.53,188.2,191Z"/><path class="cls-6" d="M82.51,119.31a6.93,6.93,0,0,1-2.75-2.59,7.55,7.55,0,0,1,0-7.51,6.93,6.93,0,0,1,2.75-2.59,8.29,8.29,0,0,1,3.95-.93,8.38,8.38,0,0,1,3.46.68,6.61,6.61,0,0,1,2.56,2L90,110.61a4.14,4.14,0,0,0-3.3-1.64,4,4,0,0,0-2,.5,3.51,3.51,0,0,0-1.38,1.4,4.33,4.33,0,0,0-.49,2.09,4.27,4.27,0,0,0,.49,2.09,3.47,3.47,0,0,0,1.38,1.41,4,4,0,0,0,2,.5,4.14,4.14,0,0,0,3.3-1.64l2.52,2.28a6.61,6.61,0,0,1-2.56,2,8.38,8.38,0,0,1-3.46.68A8.29,8.29,0,0,1,82.51,119.31Z"/><path class="cls-6" d="M97.13,106h4v14h-4Z"/><path class="cls-6" d="M109.84,119.31a6.93,6.93,0,0,1-2.75-2.59,7.55,7.55,0,0,1,0-7.51,6.93,6.93,0,0,1,2.75-2.59,8.29,8.29,0,0,1,4-.93,8.38,8.38,0,0,1,3.46.68,6.54,6.54,0,0,1,2.56,2l-2.52,2.28A4.14,4.14,0,0,0,114,109a4,4,0,0,0-2,.5,3.51,3.51,0,0,0-1.38,1.4,4.33,4.33,0,0,0-.49,2.09,4.27,4.27,0,0,0,.49,2.09,3.47,3.47,0,0,0,1.38,1.41,4,4,0,0,0,2,.5,4.14,4.14,0,0,0,3.3-1.64l2.52,2.28a6.54,6.54,0,0,1-2.56,2,8.38,8.38,0,0,1-3.46.68A8.29,8.29,0,0,1,109.84,119.31Z"/><path class="cls-6" d="M124.47,106h4v10.85h6.68V120H124.47Z"/><path class="cls-6" d="M142.63,119.3a7.15,7.15,0,0,1,0-12.67,8.94,8.94,0,0,1,8,0,7,7,0,0,1,2.78,2.6,7.41,7.41,0,0,1,0,7.47,7,7,0,0,1-2.78,2.6,8.94,8.94,0,0,1-8,0Zm5.91-2.84a3.55,3.55,0,0,0,1.36-1.41,4.28,4.28,0,0,0,.5-2.09,4.33,4.33,0,0,0-.5-2.09,3.59,3.59,0,0,0-1.36-1.4,3.67,3.67,0,0,0-1.92-.5,3.72,3.72,0,0,0-1.92.5,3.66,3.66,0,0,0-1.36,1.4,4.33,4.33,0,0,0-.5,2.09,4.28,4.28,0,0,0,.5,2.09,3.62,3.62,0,0,0,1.36,1.41,3.72,3.72,0,0,0,1.92.5A3.67,3.67,0,0,0,148.54,116.46Z"/><path class="cls-6" d="M12,264.91A2.37,2.37,0,0,1,11,264a2.5,2.5,0,0,1-.34-1.3,2.53,2.53,0,0,1,.34-1.29,2.35,2.35,0,0,1,1-.9,2.72,2.72,0,0,1,1.34-.33,2.84,2.84,0,0,1,1.1.21,2.22,2.22,0,0,1,.84.61l-.59.55a1.73,1.73,0,0,0-1.31-.57,1.77,1.77,0,0,0-.9.22,1.61,1.61,0,0,0-.63.61,1.91,1.91,0,0,0,0,1.78,1.54,1.54,0,0,0,.63.61,1.77,1.77,0,0,0,.9.22,1.7,1.7,0,0,0,1.31-.58l.59.56a2.18,2.18,0,0,1-.85.61,2.8,2.8,0,0,1-1.1.21A2.72,2.72,0,0,1,12,264.91Z"/><path class="cls-6" d="M18.08,264.91a2.33,2.33,0,0,1-.94-.9,2.44,2.44,0,0,1-.34-1.29,2.46,2.46,0,0,1,.34-1.29,2.33,2.33,0,0,1,.94-.9,2.78,2.78,0,0,1,1.35-.33,2.82,2.82,0,0,1,1.36.33,2.33,2.33,0,0,1,.94.9,2.44,2.44,0,0,1,.34,1.29,2.5,2.5,0,0,1-.34,1.3,2.37,2.37,0,0,1-.94.89,2.82,2.82,0,0,1-1.36.33A2.78,2.78,0,0,1,18.08,264.91Zm2.24-.69a1.56,1.56,0,0,0,.61-.61,1.84,1.84,0,0,0,0-1.78,1.62,1.62,0,0,0-.61-.61,1.78,1.78,0,0,0-.89-.22,1.74,1.74,0,0,0-.88.22,1.62,1.62,0,0,0-.61.61,1.84,1.84,0,0,0,0,1.78,1.56,1.56,0,0,0,.61.61,1.74,1.74,0,0,0,.88.22A1.78,1.78,0,0,0,20.32,264.22Z"/><path class="cls-6" d="M24.05,260.27H25v4.13h2.57v.77H24.05Z"/><path class="cls-6" d="M32.94,264.41v.76H29.26v-4.9h3.58V261H30.17v1.28h2.37v.75H30.17v1.35Z"/><path class="cls-6" d="M36,261H34.34v-.77H38.5V261H36.87v4.13H36Z"/><path class="cls-6" d="M40.2,260.27h.91v4.9H40.2Z"/><path class="cls-6" d="M47.92,260.27l-2.13,4.9h-.9l-2.14-4.9h1l1.63,3.78L47,260.27Z"/><path class="cls-6" d="M50.5,264.91a2.35,2.35,0,0,1-1-.9,2.53,2.53,0,0,1-.34-1.29,2.56,2.56,0,0,1,.34-1.29,2.35,2.35,0,0,1,1-.9,2.93,2.93,0,0,1,2.7,0,2.35,2.35,0,0,1,.95.9,2.44,2.44,0,0,1,.34,1.29,2.5,2.5,0,0,1-.34,1.3,2.4,2.4,0,0,1-.95.89,2.93,2.93,0,0,1-2.7,0Zm2.23-.69a1.58,1.58,0,0,0,.62-.61,1.91,1.91,0,0,0,0-1.78,1.65,1.65,0,0,0-.62-.61,1.87,1.87,0,0,0-1.76,0,1.65,1.65,0,0,0-.62.61,1.91,1.91,0,0,0,0,1.78,1.58,1.58,0,0,0,.62.61,1.87,1.87,0,0,0,1.76,0Z"/><path class="cls-6" d="M59.42,260.27h2.14a3,3,0,0,1,1.39.31,2.26,2.26,0,0,1,.95.86,2.46,2.46,0,0,1,.33,1.28A2.5,2.5,0,0,1,63.9,264a2.33,2.33,0,0,1-.95.86,3.09,3.09,0,0,1-1.39.3H59.42Zm2.1,4.13a2.08,2.08,0,0,0,.95-.21,1.47,1.47,0,0,0,.63-.58,1.91,1.91,0,0,0,0-1.78,1.47,1.47,0,0,0-.63-.58,2.08,2.08,0,0,0-.95-.21H60.33v3.36Z"/><path class="cls-6" d="M69.89,264.41v.76H66.21v-4.9h3.58V261H67.12v1.28h2.37v.75H67.12v1.35Z"/><path class="cls-6" d="M74.87,260.27h.91v4.9h-.91Z"/><path class="cls-6" d="M82.47,260.27v4.9h-.75L79,261.85v3.32h-.91v-4.9h.75l2.71,3.32v-3.32Z"/><path class="cls-6" d="M89.28,260.27l-2.14,4.9h-.89l-2.14-4.9h1l1.63,3.78,1.65-3.78Z"/><path class="cls-6" d="M94.59,264.41v.76H90.92v-4.9h3.57V261H91.83v1.28h2.36v.75H91.83v1.35Z"/><path class="cls-6" d="M97.05,265.08a2.2,2.2,0,0,1-.84-.43l.31-.7a2.86,2.86,0,0,0,.74.38,2.73,2.73,0,0,0,.88.16,1.49,1.49,0,0,0,.82-.18.53.53,0,0,0,.27-.46.45.45,0,0,0-.15-.35,1,1,0,0,0-.39-.21l-.63-.18a7.45,7.45,0,0,1-.9-.26,1.56,1.56,0,0,1-.6-.42,1.15,1.15,0,0,1-.25-.77,1.33,1.33,0,0,1,.22-.73,1.45,1.45,0,0,1,.67-.53,2.72,2.72,0,0,1,1.09-.2,3.72,3.72,0,0,1,.88.11,2.87,2.87,0,0,1,.75.32l-.29.71a3.31,3.31,0,0,0-.67-.29,2.71,2.71,0,0,0-.68-.09,1.41,1.41,0,0,0-.8.18.54.54,0,0,0-.26.48.42.42,0,0,0,.15.34,1.07,1.07,0,0,0,.38.21,6,6,0,0,0,.63.18,6.77,6.77,0,0,1,.9.26,1.46,1.46,0,0,1,.59.42,1.09,1.09,0,0,1,.25.76,1.26,1.26,0,0,1-.22.73,1.5,1.5,0,0,1-.67.52,2.56,2.56,0,0,1-1.09.2A3.6,3.6,0,0,1,97.05,265.08Z"/><path class="cls-6" d="M103,261h-1.62v-.77h4.16V261h-1.63v4.13H103Z"/><path class="cls-6" d="M107.27,260.27h.91v4.9h-.91Z"/><path class="cls-6" d="M113.86,262.66h.86v2a2.73,2.73,0,0,1-.88.46,3.26,3.26,0,0,1-1,.16,2.75,2.75,0,0,1-1.35-.33,2.33,2.33,0,0,1-.95-.89,2.5,2.5,0,0,1-.34-1.3,2.44,2.44,0,0,1,.34-1.29,2.35,2.35,0,0,1,.95-.9,2.79,2.79,0,0,1,1.36-.33,3.1,3.1,0,0,1,1.12.2,2.26,2.26,0,0,1,.85.6l-.58.56a1.84,1.84,0,0,0-1.35-.56,1.87,1.87,0,0,0-.92.22,1.48,1.48,0,0,0-.63.61,1.82,1.82,0,0,0,0,1.77,1.63,1.63,0,0,0,.63.62,1.84,1.84,0,0,0,.92.22,1.93,1.93,0,0,0,1-.25Z"/><path class="cls-6" d="M120.11,264h-2.45l-.48,1.13h-.94l2.21-4.9h.89l2.22,4.9h-1Zm-.3-.72-.92-2.14-.92,2.14Z"/><path class="cls-6" d="M124.12,264.91a2.37,2.37,0,0,1-.94-.89,2.6,2.6,0,0,1-.34-1.3,2.45,2.45,0,0,1,.35-1.29,2.33,2.33,0,0,1,.94-.9,2.72,2.72,0,0,1,1.34-.33,2.8,2.8,0,0,1,1.1.21,2.22,2.22,0,0,1,.84.61l-.59.55a1.71,1.71,0,0,0-1.31-.57,1.77,1.77,0,0,0-.9.22,1.61,1.61,0,0,0-.63.61,1.91,1.91,0,0,0,0,1.78,1.54,1.54,0,0,0,.63.61,1.77,1.77,0,0,0,.9.22,1.69,1.69,0,0,0,1.31-.58l.59.56a2.18,2.18,0,0,1-.85.61,2.8,2.8,0,0,1-1.1.21A2.74,2.74,0,0,1,124.12,264.91Zm.37,1.71.16-.41a1.06,1.06,0,0,0,.48.11c.24,0,.37-.08.37-.25a.2.2,0,0,0-.09-.17.53.53,0,0,0-.28-.06h-.22l.19-.72h.47l-.09.39a.73.73,0,0,1,.45.2.53.53,0,0,1,.15.39.56.56,0,0,1-.25.48,1.16,1.16,0,0,1-.7.19A1.29,1.29,0,0,1,124.49,266.62Z"/><path class="cls-6" d="M132.48,264H130l-.49,1.13h-.93l2.2-4.9h.9l2.21,4.9H133Zm-1-4.24a2.43,2.43,0,0,1-.32-.21l-.19-.14a.25.25,0,0,0-.14,0,.3.3,0,0,0-.24.11.5.5,0,0,0-.1.31H130a1,1,0,0,1,.21-.68.67.67,0,0,1,.54-.26.62.62,0,0,1,.31.07l.32.21.18.14a.28.28,0,0,0,.15,0,.33.33,0,0,0,.24-.1.51.51,0,0,0,.1-.3h.47a1.08,1.08,0,0,1-.22.67.64.64,0,0,1-.54.25A.58.58,0,0,1,131.46,259.8Zm.72,3.52-.93-2.14-.92,2.14Z"/><path class="cls-6" d="M136.49,264.91a2.33,2.33,0,0,1-.94-.9,2.44,2.44,0,0,1-.34-1.29,2.46,2.46,0,0,1,.34-1.29,2.33,2.33,0,0,1,.94-.9,2.95,2.95,0,0,1,2.71,0,2.33,2.33,0,0,1,.94.9,2.44,2.44,0,0,1,.34,1.29,2.5,2.5,0,0,1-.34,1.3,2.37,2.37,0,0,1-.94.89,2.95,2.95,0,0,1-2.71,0Zm2.24-.69a1.56,1.56,0,0,0,.61-.61,1.84,1.84,0,0,0,0-1.78,1.62,1.62,0,0,0-.61-.61,1.89,1.89,0,0,0-1.77,0,1.62,1.62,0,0,0-.61.61,1.84,1.84,0,0,0,0,1.78,1.56,1.56,0,0,0,.61.61,1.89,1.89,0,0,0,1.77,0Z"/><path class="cls-6" d="M149.09,264.41v.76h-3.68v-4.9H149V261h-2.67v1.28h2.37v.75h-2.37v1.35Z"/><path class="cls-6" d="M155,264.91a2.37,2.37,0,0,1-.94-.89,2.6,2.6,0,0,1-.34-1.3,2.45,2.45,0,0,1,.35-1.29,2.33,2.33,0,0,1,.94-.9,2.72,2.72,0,0,1,1.34-.33,2.8,2.8,0,0,1,1.1.21,2.22,2.22,0,0,1,.84.61l-.59.55a1.71,1.71,0,0,0-1.31-.57,1.77,1.77,0,0,0-.9.22,1.52,1.52,0,0,0-.62.61,1.84,1.84,0,0,0,0,1.78,1.46,1.46,0,0,0,.62.61,1.77,1.77,0,0,0,.9.22,1.69,1.69,0,0,0,1.31-.58l.59.56a2.18,2.18,0,0,1-.85.61,2.8,2.8,0,0,1-1.1.21A2.74,2.74,0,0,1,155,264.91Z"/><path class="cls-6" d="M163.37,265.17l-1-1.43h-1.29v1.43h-.91v-4.9h2a2.68,2.68,0,0,1,1.11.21,1.62,1.62,0,0,1,.73.6,1.66,1.66,0,0,1,.25.93,1.69,1.69,0,0,1-.27,1,1.65,1.65,0,0,1-.77.59l1.12,1.61Zm-.33-3.88a1.36,1.36,0,0,0-.9-.25h-1.06V263h1.06a1.36,1.36,0,0,0,.9-.25,1,1,0,0,0,0-1.45Z"/><path class="cls-6" d="M166.3,260.27h.91v4.9h-.91Z"/><path class="cls-6" d="M172.73,264h-2.46l-.48,1.13h-.94l2.21-4.9h.9l2.21,4.9h-.95Zm-.31-.72-.92-2.14-.92,2.14Z"/><path class="cls-6" d="M176.73,264.91a2.37,2.37,0,0,1-.94-.89,2.6,2.6,0,0,1-.34-1.3,2.45,2.45,0,0,1,.35-1.29,2.33,2.33,0,0,1,.94-.9,2.74,2.74,0,0,1,1.34-.33,2.8,2.8,0,0,1,1.1.21,2.22,2.22,0,0,1,.84.61l-.59.55a1.71,1.71,0,0,0-1.31-.57,1.79,1.79,0,0,0-.9.22,1.58,1.58,0,0,0-.62.61,1.84,1.84,0,0,0,0,1.78,1.52,1.52,0,0,0,.62.61,1.79,1.79,0,0,0,.9.22,1.69,1.69,0,0,0,1.31-.58l.59.56a2.22,2.22,0,0,1-.84.61,2.89,2.89,0,0,1-1.11.21A2.74,2.74,0,0,1,176.73,264.91Zm.37,1.71.16-.41a1.09,1.09,0,0,0,.48.11c.24,0,.37-.08.37-.25a.2.2,0,0,0-.09-.17.53.53,0,0,0-.28-.06h-.22l.19-.72h.48l-.1.39a.73.73,0,0,1,.45.2.5.5,0,0,1,.16.39.56.56,0,0,1-.26.48,1.16,1.16,0,0,1-.7.19A1.29,1.29,0,0,1,177.1,266.62Z"/><path class="cls-6" d="M185.09,264h-2.45l-.49,1.13h-.93l2.2-4.9h.9l2.21,4.9h-.95Zm-1-4.24a2.43,2.43,0,0,1-.32-.21l-.18-.14a.28.28,0,0,0-.15,0,.3.3,0,0,0-.24.11.5.5,0,0,0-.1.31h-.47a1.08,1.08,0,0,1,.21-.68.68.68,0,0,1,.55-.26.6.6,0,0,1,.3.07l.32.21.18.14a.28.28,0,0,0,.15,0,.3.3,0,0,0,.24-.1.45.45,0,0,0,.1-.3h.47a1.08,1.08,0,0,1-.22.67.64.64,0,0,1-.54.25A.58.58,0,0,1,184.07,259.8Zm.72,3.52-.93-2.14-.91,2.14Z"/><path class="cls-6" d="M189.11,264.91a2.29,2.29,0,0,1-1-.9,2.44,2.44,0,0,1-.34-1.29,2.46,2.46,0,0,1,.34-1.29,2.29,2.29,0,0,1,1-.9,2.93,2.93,0,0,1,2.7,0,2.33,2.33,0,0,1,.94.9,2.45,2.45,0,0,1,.35,1.29,2.51,2.51,0,0,1-.35,1.3,2.37,2.37,0,0,1-.94.89,2.93,2.93,0,0,1-2.7,0Zm2.23-.69a1.49,1.49,0,0,0,.61-.61,1.84,1.84,0,0,0,0-1.78,1.56,1.56,0,0,0-.61-.61,1.74,1.74,0,0,0-.88-.22,1.78,1.78,0,0,0-.89.22,1.62,1.62,0,0,0-.61.61,1.84,1.84,0,0,0,0,1.78,1.56,1.56,0,0,0,.61.61,1.78,1.78,0,0,0,.89.22A1.74,1.74,0,0,0,191.34,264.22Z"/><path class="cls-6" d="M198,260.27h.91v4.13h2.56v.77H198Z"/><path class="cls-6" d="M203.23,260.27h.91v4.9h-.91Z"/><path class="cls-6" d="M211,260.27l-2.14,4.9h-.89l-2.14-4.9h1l1.63,3.78,1.65-3.78Z"/><path class="cls-6" d="M215.8,265.17l-1-1.43h-1.29v1.43h-.91v-4.9h2a2.68,2.68,0,0,1,1.11.21,1.62,1.62,0,0,1,.73.6,1.74,1.74,0,0,1,.25.93,1.69,1.69,0,0,1-.27,1,1.65,1.65,0,0,1-.77.59l1.12,1.61Zm-.33-3.88a1.36,1.36,0,0,0-.9-.25h-1.06V263h1.06a1.36,1.36,0,0,0,.9-.25,1,1,0,0,0,0-1.45Z"/><path class="cls-6" d="M222.4,264.41v.76h-3.67v-4.9h3.58V261h-2.67v1.28H222v.75h-2.36v1.35Z"/></g></g></svg>